# Blender v2.92.0 OBJ File: 'item.blend'
# www.blender.org
mtllib item.mtl
o Cube
v 1.000000 3.360680 -1.000000
v 1.000000 2.117689 -1.000000
v 1.000000 3.360680 1.000000
v 1.000000 2.117689 1.000000
v -1.000000 3.360680 -1.000000
v -1.000000 2.117689 -1.000000
v -1.000000 3.360680 1.000000
v -1.000000 2.117689 1.000000
v 1.000000 5.516954 1.975492
v -1.000000 5.516954 1.975492
v 1.000000 5.516954 0.449682
v -1.000000 5.516954 0.449682
v 1.000000 6.856712 0.997233
v -1.000000 6.856712 0.997233
v 1.000000 6.856712 -1.002767
v -1.000000 6.856712 -1.002767
v 1.000000 7.242935 -0.331580
v -1.000000 7.242935 -0.331580
v 1.000000 7.242935 -1.002767
v -1.000000 7.242935 -1.002767
v -1.000000 6.856712 -2.988883
v 1.000000 6.856712 -2.988883
v -1.000000 7.242935 -1.766567
v 1.000000 7.242935 -1.766567
v -1.000000 5.579406 -2.158545
v 1.000000 5.579406 -2.158545
v -1.000000 5.579406 -3.411509
v 1.000000 5.579406 -3.411509
v -0.692025 -0.002148 0.692025
v -0.692025 1.381903 0.692025
v -0.692025 -0.002148 -0.692025
v -0.692025 1.381903 -0.692025
v 0.692025 -0.002148 0.692025
v 0.692025 1.381903 0.692025
v 0.692025 -0.002148 -0.692025
v 0.692025 1.381903 -0.692025
vt 0.115551 0.372884
vt 0.115551 0.372884
vt 0.115551 0.372884
vt 0.115551 0.372884
vt 0.115551 0.372884
vt 0.115551 0.372884
vt 0.115551 0.372884
vt 0.115551 0.372884
vt 0.115551 0.372884
vt 0.115551 0.372884
vt 0.115551 0.372884
vt 0.115551 0.372884
vt 0.115551 0.372884
vt 0.115551 0.372884
vt 0.115551 0.372884
vt 0.115551 0.372884
vt 0.115551 0.372884
vt 0.115551 0.372884
vt 0.115551 0.372884
vt 0.115551 0.372884
vt 0.115551 0.372884
vt 0.115551 0.372884
vt 0.115551 0.372884
vt 0.115551 0.372884
vt 0.115551 0.372884
vt 0.115551 0.372884
vt 0.115551 0.372884
vt 0.115551 0.372884
vt 0.115551 0.372884
vt 0.115551 0.372884
vt 0.115551 0.372884
vt 0.115551 0.372884
vt 0.115551 0.372884
vt 0.115551 0.372884
vt 0.115551 0.372884
vt 0.115551 0.372884
vn 0.0000 0.5579 -0.8299
vn 0.0000 0.0000 1.0000
vn -1.0000 0.0000 0.0000
vn 0.0000 -1.0000 0.0000
vn 1.0000 0.0000 0.0000
vn 0.0000 0.0000 -1.0000
vn 0.0000 -0.4122 0.9111
vn 0.0000 0.3141 -0.9494
vn 0.0000 0.5897 0.8076
vn 0.0000 -0.7350 -0.6780
vn 0.0000 1.0000 0.0000
vn 0.0000 0.9603 0.2791
vn 0.0000 0.9535 -0.3013
vn 0.0000 -0.6710 0.7415
g Cube_Cube_Material
usemtl Material
s off
f 5/1/1 11/2/1 1/3/1
f 3/4/2 8/5/2 4/6/2
f 7/7/3 6/8/3 8/5/3
f 2/9/4 8/5/4 6/8/4
f 1/3/5 4/6/5 2/9/5
f 5/1/6 2/9/6 6/8/6
f 12/10/3 14/11/3 16/12/3
f 3/4/7 10/13/7 7/7/7
f 7/7/3 12/10/3 5/1/3
f 3/4/5 11/2/5 9/14/5
f 22/15/8 27/16/8 21/17/8
f 9/14/9 14/11/9 10/13/9
f 12/10/10 15/18/10 11/2/10
f 11/2/5 13/19/5 9/14/5
f 20/20/11 17/21/11 19/22/11
f 15/18/5 17/21/5 13/19/5
f 16/12/3 18/23/3 20/20/3
f 13/19/12 18/23/12 14/11/12
f 21/17/13 24/24/13 22/15/13
f 16/12/3 23/25/3 21/17/3
f 15/18/5 24/24/5 19/22/5
f 19/22/11 23/25/11 20/20/11
f 25/26/4 28/27/4 26/28/4
f 16/12/14 26/28/14 15/18/14
f 22/15/5 26/28/5 28/27/5
f 21/17/3 25/26/3 16/12/3
f 30/29/3 31/30/3 29/31/3
f 32/32/6 35/33/6 31/30/6
f 36/34/5 33/35/5 35/33/5
f 34/36/2 29/31/2 33/35/2
f 35/33/4 29/31/4 31/30/4
f 32/32/11 34/36/11 36/34/11
f 5/1/1 12/10/1 11/2/1
f 3/4/2 7/7/2 8/5/2
f 7/7/3 5/1/3 6/8/3
f 2/9/4 4/6/4 8/5/4
f 1/3/5 3/4/5 4/6/5
f 5/1/6 1/3/6 2/9/6
f 12/10/3 10/13/3 14/11/3
f 3/4/7 9/14/7 10/13/7
f 7/7/3 10/13/3 12/10/3
f 3/4/5 1/3/5 11/2/5
f 22/15/8 28/27/8 27/16/8
f 9/14/9 13/19/9 14/11/9
f 12/10/10 16/12/10 15/18/10
f 11/2/5 15/18/5 13/19/5
f 20/20/11 18/23/11 17/21/11
f 15/18/5 19/22/5 17/21/5
f 16/12/3 14/11/3 18/23/3
f 13/19/12 17/21/12 18/23/12
f 21/17/13 23/25/13 24/24/13
f 16/12/3 20/20/3 23/25/3
f 15/18/5 22/15/5 24/24/5
f 19/22/11 24/24/11 23/25/11
f 25/26/4 27/16/4 28/27/4
f 16/12/14 25/26/14 26/28/14
f 22/15/5 15/18/5 26/28/5
f 21/17/3 27/16/3 25/26/3
f 30/29/3 32/32/3 31/30/3
f 32/32/6 36/34/6 35/33/6
f 36/34/5 34/36/5 33/35/5
f 34/36/2 30/29/2 29/31/2
f 35/33/4 33/35/4 29/31/4
f 32/32/11 30/29/11 34/36/11
